<svg xmlns="http://www.w3.org/2000/svg" width="1280" height="640" viewBox="0 0 1280 640" role="img" aria-labelledby="title desc">
  <title id="title">Do Think Twice before and after preview</title>
  <desc id="desc">Before: many unnecessary suggestions. After: fewer justified changes.</desc>
  <defs>
    <filter id="shadow" x="-20%" y="-20%" width="140%" height="140%">
      <feDropShadow dx="0" dy="12" stdDeviation="18" flood-color="#111827" flood-opacity="0.12"/>
    </filter>
    <linearGradient id="bg" x1="0" y1="0" x2="1" y2="1">
      <stop offset="0" stop-color="#f8fafc"/>
      <stop offset="1" stop-color="#eef2f7"/>
    </linearGradient>
  </defs>

  <rect width="1280" height="640" fill="url(#bg)"/>

  <text x="80" y="92" fill="#111827" font-family="Inter, Segoe UI, Arial, sans-serif" font-size="48" font-weight="750">Do Think Twice</text>
  <text x="80" y="132" fill="#4b5563" font-family="Inter, Segoe UI, Arial, sans-serif" font-size="22">Filter suggestions by value, cost, risk, and uncertainty.</text>

  <g filter="url(#shadow)">
    <rect x="80" y="184" width="520" height="360" rx="18" fill="#ffffff"/>
    <rect x="680" y="184" width="520" height="360" rx="18" fill="#ffffff"/>
  </g>

  <text x="112" y="234" fill="#991b1b" font-family="Inter, Segoe UI, Arial, sans-serif" font-size="26" font-weight="700">Before</text>
  <text x="112" y="266" fill="#6b7280" font-family="Inter, Segoe UI, Arial, sans-serif" font-size="18">Many suggestions, unclear value</text>

  <g font-family="Inter, Segoe UI, Arial, sans-serif" font-size="18">
    <g fill="#991b1b" opacity="0.82">
      <circle cx="124" cy="314" r="5"/>
      <circle cx="124" cy="352" r="5"/>
      <circle cx="124" cy="390" r="5"/>
      <circle cx="124" cy="428" r="5"/>
      <circle cx="124" cy="466" r="5"/>
    </g>
    <g fill="#374151">
      <text x="144" y="320">Rename this section for style</text>
      <text x="144" y="358">Rewrite acceptable wording</text>
      <text x="144" y="396">Refactor a working pattern</text>
      <text x="144" y="434">Change harmless formatting</text>
      <text x="144" y="472">Add another optional idea</text>
    </g>
    <g opacity="0.42" fill="#991b1b">
      <path d="M420 306h78a10 10 0 0 1 10 10v6a10 10 0 0 1-10 10h-78a10 10 0 0 1-10-10v-6a10 10 0 0 1 10-10z"/>
      <path d="M386 344h112a10 10 0 0 1 10 10v6a10 10 0 0 1-10 10H386a10 10 0 0 1-10-10v-6a10 10 0 0 1 10-10z"/>
      <path d="M430 382h68a10 10 0 0 1 10 10v6a10 10 0 0 1-10 10h-68a10 10 0 0 1-10-10v-6a10 10 0 0 1 10-10z"/>
      <path d="M400 420h98a10 10 0 0 1 10 10v6a10 10 0 0 1-10 10h-98a10 10 0 0 1-10-10v-6a10 10 0 0 1 10-10z"/>
      <path d="M446 458h52a10 10 0 0 1 10 10v6a10 10 0 0 1-10 10h-52a10 10 0 0 1-10-10v-6a10 10 0 0 1 10-10z"/>
    </g>
  </g>

  <g>
    <line x1="622" y1="364" x2="658" y2="364" stroke="#9ca3af" stroke-width="4" stroke-linecap="round"/>
    <path d="M646 350l14 14-14 14" fill="none" stroke="#9ca3af" stroke-width="4" stroke-linecap="round" stroke-linejoin="round"/>
  </g>

  <text x="712" y="234" fill="#065f46" font-family="Inter, Segoe UI, Arial, sans-serif" font-size="26" font-weight="700">After</text>
  <text x="712" y="266" fill="#6b7280" font-family="Inter, Segoe UI, Arial, sans-serif" font-size="18">Fewer changes, each justified</text>

  <g font-family="Inter, Segoe UI, Arial, sans-serif">
    <rect x="712" y="288" width="424" height="56" rx="12" fill="#ecfdf5" stroke="#a7f3d0"/>
    <text x="736" y="321" fill="#065f46" font-size="18" font-weight="700">Must fix</text>
    <text x="836" y="321" fill="#1f2937" font-size="18">Correct a real blocker</text>

    <rect x="712" y="364" width="424" height="56" rx="12" fill="#f0fdf4" stroke="#bbf7d0"/>
    <text x="736" y="397" fill="#166534" font-size="18" font-weight="700">Strong</text>
    <text x="836" y="397" fill="#1f2937" font-size="18">Clarify risky wording</text>

    <rect x="712" y="440" width="424" height="56" rx="12" fill="#f9fafb" stroke="#e5e7eb"/>
    <text x="736" y="473" fill="#374151" font-size="18" font-weight="700">Keep</text>
    <text x="836" y="473" fill="#1f2937" font-size="18">Leave acceptable style alone</text>
  </g>

  <g font-family="Inter, Segoe UI, Arial, sans-serif" font-size="16" fill="#6b7280">
    <text x="80" y="590">before: suggestion volume</text>
    <rect x="286" y="577" width="148" height="8" rx="4" fill="#fecaca"/>
    <rect x="712" y="577" width="96" height="8" rx="4" fill="#86efac"/>
    <text x="826" y="590">after: decision quality</text>
  </g>
</svg>
